<svg width="39" height="38" viewBox="0 0 39 38" fill="none" xmlns="http://www.w3.org/2000/svg">
<path fill-rule="evenodd" clip-rule="evenodd" d="M37.5009 34.8791C38.3289 34.8791 39.0009 35.5511 39.0009 36.3791C39.0009 37.2071 38.3289 37.8791 37.5009 37.8791H22.9949C22.167 37.8791 21.4949 37.2071 21.4949 36.3791C21.4949 35.5511 22.167 34.8791 22.9949 34.8791H37.5009ZM28.2325 1.30729C28.3325 1.38529 31.6785 3.98529 31.6785 3.98529C32.8946 4.70929 33.8445 6.00329 34.2045 7.53529C34.5625 9.05129 34.3025 10.6153 33.4685 11.9373C33.463 11.9461 33.4575 11.9548 33.4381 11.9807L33.4231 12.0008C33.2877 12.1792 32.6992 12.9233 29.7291 16.6445C29.7015 16.6932 29.6703 16.7389 29.6361 16.7833C29.5861 16.8487 29.5316 16.9088 29.4734 16.9636C29.2708 17.2187 29.0568 17.4867 28.8318 17.7685L28.376 18.3394C27.4354 19.5174 26.3197 20.9142 24.9961 22.5709L24.3168 23.4212C21.7615 26.6195 18.4889 30.7145 14.2965 35.9593C13.3785 37.1033 12.0025 37.7693 10.5245 37.7873L3.24655 37.8793H3.22655C2.53255 37.8793 1.92855 37.4033 1.76655 36.7253L0.128549 29.7833C-0.209451 28.3453 0.126549 26.8613 1.04855 25.7093L19.8885 2.14529C19.8965 2.13729 19.9025 2.12729 19.9105 2.11929C21.9765 -0.350715 25.7125 -0.714715 28.2325 1.30729ZM17.788 9.574L3.39055 27.5833C3.04855 28.0113 2.92255 28.5633 3.04855 29.0933L4.41055 34.8633L10.4885 34.7873C11.0665 34.7813 11.6005 34.5233 11.9545 34.0833C13.7775 31.8025 16.0687 28.9358 18.4243 25.988L19.2577 24.9451L20.0925 23.9004C22.3016 21.1358 24.4841 18.4041 26.3103 16.1177L17.788 9.574ZM22.2205 4.03329L19.662 7.23L28.1835 13.7719C29.8238 11.7174 30.9028 10.3643 31.0025 10.2353C31.3305 9.70329 31.4585 8.95129 31.2865 8.22729C31.1105 7.48529 30.6485 6.85529 29.9825 6.45329C29.8405 6.35529 26.4705 3.73929 26.3665 3.65729C25.0985 2.64129 23.2485 2.81729 22.2205 4.03329Z" fill="white"/>
</svg>
