<svg width="40" height="40" viewBox="0 0 40 40" fill="none" xmlns="http://www.w3.org/2000/svg">
<path fill-rule="evenodd" clip-rule="evenodd" d="M13.8468 19.4861C13.8828 19.5181 13.9168 19.5481 13.9508 19.5841C16.1088 21.7961 17.2988 24.7261 17.2988 27.8361V35.8041L21.7708 33.3681C22.1228 33.1761 22.3408 32.8001 22.3408 32.3861V27.8121C22.3408 24.7141 23.5188 21.7941 25.6568 19.5941L35.3308 9.30409C35.9568 8.63809 36.3008 7.76409 36.3008 6.84209V4.97009C36.3008 4.04209 35.5688 3.28809 34.6728 3.28809H4.93078C4.03278 3.28809 3.30078 4.04209 3.30078 4.97009V6.84209C3.30078 7.76409 3.64478 8.63809 4.27078 9.30209L13.8468 19.4861ZM16.5928 39.2901C16.1888 39.2901 15.7888 39.1821 15.4248 38.9661C14.7208 38.5461 14.2988 37.8041 14.2988 36.9801V27.8361C14.2988 25.5661 13.4528 23.4281 11.9108 21.7901C11.8648 21.7521 11.8188 21.7101 11.7788 21.6661L2.08678 11.3601C0.934781 10.1361 0.300781 8.53009 0.300781 6.84209V4.97009C0.300781 2.38809 2.37878 0.288086 4.93078 0.288086H34.6728C37.2228 0.288086 39.3008 2.38809 39.3008 4.97009V6.84209C39.3008 8.52809 38.6668 10.1321 37.5188 11.3581L27.8248 21.6661C26.2188 23.3221 25.3408 25.5001 25.3408 27.8121V32.3861C25.3408 33.8981 24.5228 35.2821 23.2068 36.0021L17.6848 39.0101C17.3408 39.1961 16.9668 39.2901 16.5928 39.2901Z" fill="white"/>
</svg>
