<svg width="369" height="141" viewBox="0 0 369 141" fill="none" xmlns="http://www.w3.org/2000/svg">
<path d="M144.917 72.0747L137.219 54.8993C136.737 53.9451 135.895 53.3488 134.933 52.991L130.242 51.6789C129.4 51.4404 128.558 51.4404 127.716 51.7982L125.792 52.6331C124.829 52.991 124.108 53.8259 123.747 54.7801L122.183 59.6703C121.943 60.5052 121.943 61.4594 122.304 62.2943L129.641 78.2769C130.483 80.066 132.648 80.4238 134.452 79.7082L143.353 76.0107C145.277 75.0565 145.879 73.8638 144.917 72.0747ZM128.197 58.1197C126.995 58.1197 126.032 57.1655 126.032 56.0921C126.032 55.0186 126.995 54.0644 128.197 54.0644C129.4 54.0644 130.362 55.0186 130.362 56.0921C130.362 57.1655 129.4 58.1197 128.197 58.1197Z" fill="white"/>
<path d="M132.646 37.6043C129.278 36.5309 126.512 44.5222 110.514 50.6051C110.514 50.3666 106.786 34.384 103.177 24.8421C99.8092 15.7773 94.1559 5.162 84.5334 1.34526C76.5948 -1.75585 67.6939 0.74889 61.6798 6.35474C56.8686 10.7678 53.7413 16.9701 53.5007 23.5301C53.1398 37.6043 62.2813 52.0364 75.2717 57.7615C82.7292 61.1012 91.2692 61.459 99.2078 60.147C99.2078 60.147 101.253 102.728 91.3894 116.802C90.0663 118.71 87.2999 120.022 85.1348 120.141C78.0382 120.619 74.3094 111.077 72.2646 105.829C69.9793 99.865 68.5359 93.6628 66.9722 87.5799C65.5289 81.974 64.326 75.5333 61.4393 70.5238C60.2365 68.4961 58.5525 66.707 56.3875 66.1107C52.0573 64.7987 46.7649 67.7805 45.2012 71.8358C44.5998 73.5056 44.3593 75.1754 44.3593 76.9645C43.8782 86.6257 43.7579 96.2868 42.3145 105.948C41.5928 110.719 40.6305 121.931 34.9773 124.078C34.9773 124.078 16.2133 133.142 21.5057 76.2489C21.5057 76.2489 22.1072 64.2023 14.0483 63.9637C12.0035 63.9637 9.95869 64.6794 8.39503 65.9914C6.95165 67.3034 5.02714 69.331 3.58376 72.9092C-2.06948 87.222 -0.265256 104.636 3.70404 119.187C5.50827 125.747 8.63559 132.546 13.928 137.198C19.461 142.088 28.1212 141.73 34.6165 139.106C53.9818 131.353 54.8238 99.5072 54.8238 99.5072C57.7106 107.856 61.319 115.848 66.4911 122.885C71.4227 129.683 78.0382 136.482 87.0593 136.72C105.462 137.078 110.153 115.848 111.837 101.654C112.8 93.6628 113.16 85.5522 113.04 77.4416C113.04 75.5333 111.717 57.1652 111.958 57.1652C119.776 54.6604 125.549 51.2015 128.677 48.1004C131.443 45.3571 135.052 38.32 132.646 37.6043ZM98.3658 52.9906C84.8942 54.5412 70.0996 48.9353 63.8449 36.2923C59.7553 27.7047 60.1162 16.7315 68.2953 10.5293C70.9415 8.50166 74.4297 7.4282 77.6773 7.78602C81.6466 8.26311 85.1348 11.0064 87.4201 14.2268C92.3517 21.0254 94.2762 29.8516 95.9602 37.8429C96.321 39.1549 99.0875 52.9906 98.3658 52.9906Z" fill="#DAB229"/>
<path d="M126.39 46.3113C125.788 44.5222 125.187 43.091 124.225 42.0175C123.383 40.944 122.661 40.3477 121.819 39.9898C121.458 39.8706 120.977 39.8706 120.616 39.9898C120.015 40.2284 119.654 40.8248 119.534 41.3019C119.293 41.8982 119.293 42.9717 119.293 43.9259C119.293 44.0451 119.413 44.2837 119.534 44.2837C119.654 44.403 119.894 44.2837 120.015 44.2837L120.736 43.6873C120.977 43.568 121.097 43.2102 121.097 42.9717C121.097 42.4946 121.217 42.0175 121.338 41.8982C122.059 42.256 122.661 43.2102 123.142 43.9259C123.503 44.5222 123.864 45.1186 124.104 45.715C124.946 47.7426 125.548 50.0088 126.029 52.7521C126.029 53.1099 126.149 53.3485 126.149 53.7063C126.149 53.8256 126.269 54.0641 126.39 54.0641H126.51C126.63 54.0641 126.75 54.0641 126.871 53.9448C127.111 53.8256 127.232 53.587 127.472 53.4677C127.592 53.3485 127.713 53.2292 127.713 52.9906C127.472 50.3666 126.991 48.2197 126.39 46.3113Z" fill="white"/>
<path d="M143.473 126.346C131.565 126.346 122.062 120.144 122.062 106.427C122.062 92.7109 131.444 86.6279 143.473 86.6279C160.312 86.6279 165.364 98.0782 165.364 103.684C165.364 108.216 163.199 109.767 158.388 109.767H137.098C137.459 114.538 140.225 117.639 145.157 117.639C150.569 117.639 153.817 112.987 158.388 112.987C161.034 112.987 163.079 115.492 163.079 117.878C163.079 122.052 158.027 126.346 143.473 126.346ZM151.171 102.372C151.171 97.124 147.923 95.3349 144.194 95.3349C140.826 95.3349 137.338 97.124 137.098 102.372H151.171Z" fill="#DAB229"/>
<path d="M167.289 79.7104C167.289 74.7009 170.416 72.3154 174.747 72.3154C179.077 72.3154 182.204 74.5816 182.204 79.7104V118.951C182.204 123.961 179.077 126.346 174.747 126.346C170.416 126.346 167.289 124.08 167.289 118.951V79.7104Z" fill="white"/>
<path d="M185.934 79.7104C185.934 74.7009 189.061 72.3154 193.391 72.3154C197.721 72.3154 200.849 74.5816 200.849 79.7104V118.951C200.849 123.961 197.721 126.346 193.391 126.346C189.061 126.346 185.934 124.08 185.934 118.951V79.7104Z" fill="white"/>
<path d="M230.317 104.757C230.317 100.583 228.513 98.4359 224.784 98.4359C221.055 98.4359 219.251 101.298 219.251 105.831V119.07C219.251 124.08 216.124 126.465 211.793 126.465C207.463 126.465 204.336 124.199 204.336 119.07V93.7842C204.336 89.1325 206.621 86.7471 211.553 86.7471C216.003 86.7471 217.807 89.2518 218.289 93.7842H218.409C220.935 89.2518 225.024 86.7471 230.798 86.7471C241.262 86.7471 245.472 93.0686 245.472 101.418V119.189C245.472 124.199 242.345 126.584 238.015 126.584C233.685 126.584 230.557 124.318 230.557 119.189V104.757H230.317Z" fill="white"/>
<path d="M269.047 126.346C257.019 126.346 247.637 120.144 247.637 106.427C247.637 92.7109 257.019 86.6279 269.047 86.6279C285.886 86.6279 290.938 98.0782 290.938 103.684C290.938 108.216 288.773 109.767 283.962 109.767H262.672C263.033 114.538 265.799 117.639 270.731 117.639C276.264 117.639 279.391 112.987 283.962 112.987C286.608 112.987 288.653 115.492 288.653 117.878C288.653 122.052 283.481 126.346 269.047 126.346ZM276.745 102.372C276.745 97.124 273.497 95.3349 269.769 95.3349C266.401 95.3349 262.912 97.124 262.672 102.372H276.745Z" fill="white"/>
<path d="M309.702 111.675L305.252 110.721C294.306 108.455 291.059 104.519 291.059 98.9131C291.059 93.0687 295.268 86.6279 310.304 86.6279C319.205 86.6279 328.466 89.1327 328.466 94.8578C328.466 97.4818 326.421 99.5095 323.535 99.5095C318.603 99.5095 317.039 94.8578 309.943 94.8578C307.297 94.8578 305.733 95.812 305.733 97.4818C305.733 98.9131 306.334 99.6287 310.424 100.464L316.799 101.895C325.098 103.684 330.15 107.143 330.15 113.226C330.15 119.786 325.219 126.346 309.462 126.346C299.719 126.346 291.179 123.483 291.179 117.162C291.179 114.657 293.585 112.63 296.471 112.63C300.681 112.63 302.726 118.116 309.943 118.116C313.19 118.116 314.634 116.566 314.634 115.134C314.634 113.822 313.912 112.51 309.702 111.675Z" fill="white"/>
<path d="M348.554 111.675L344.103 110.721C333.158 108.455 329.91 104.519 329.91 98.9131C329.91 93.0687 334.12 86.6279 349.155 86.6279C358.056 86.6279 367.318 89.1327 367.318 94.8578C367.318 97.4818 365.273 99.5095 362.386 99.5095C357.455 99.5095 355.891 94.8578 348.794 94.8578C346.148 94.8578 344.585 95.812 344.585 97.4818C344.585 98.9131 345.186 99.6287 349.276 100.464L355.65 101.895C363.95 103.684 369.002 107.143 369.002 113.226C369.002 119.786 364.07 126.346 348.313 126.346C338.57 126.346 330.03 123.483 330.03 117.162C330.03 114.657 332.436 112.63 335.323 112.63C339.533 112.63 341.577 118.116 348.794 118.116C352.042 118.116 353.485 116.566 353.485 115.134C353.485 113.822 352.764 112.51 348.554 111.675Z" fill="white"/>
</svg>
