<svg width="39" height="42" viewBox="0 0 39 42" fill="none" xmlns="http://www.w3.org/2000/svg">
<path fill-rule="evenodd" clip-rule="evenodd" d="M20.5346 0.000976562C21.9666 0.000976562 23.3586 0.588977 24.3566 1.61098C25.3526 2.63898 25.9026 4.04898 25.8606 5.47898C25.8646 5.80098 25.9706 6.17298 26.1626 6.49898C26.4806 7.03898 26.9826 7.41898 27.5786 7.57498C28.1746 7.72298 28.7986 7.64298 29.3286 7.32898C31.8886 5.86698 35.1466 6.74298 36.6086 9.28298L37.8546 11.441C37.8866 11.499 37.9146 11.555 37.9386 11.613C39.2626 14.115 38.3786 17.265 35.9186 18.703C35.5606 18.909 35.2706 19.197 35.0706 19.545C34.7606 20.083 34.6746 20.723 34.8306 21.311C34.9906 21.911 35.3726 22.409 35.9106 22.717C37.1246 23.415 38.0306 24.591 38.3926 25.949C38.7546 27.305 38.5566 28.777 37.8506 29.991L36.5226 32.203C35.0606 34.715 31.8026 35.585 29.2686 34.121C28.9306 33.927 28.5406 33.821 28.1526 33.811H28.1406C27.5626 33.811 26.9686 34.057 26.5366 34.487C26.0986 34.925 25.8586 35.509 25.8626 36.129C25.8486 39.067 23.4586 41.443 20.5346 41.443H18.0286C15.0906 41.443 12.7006 39.055 12.7006 36.117C12.6966 35.755 12.5926 35.379 12.3986 35.053C12.0846 34.505 11.5766 34.113 10.9906 33.957C10.4086 33.801 9.77064 33.887 9.24664 34.191C7.99064 34.891 6.51264 35.061 5.16064 34.681C3.81064 34.299 2.64464 33.371 1.96064 32.141L0.71064 29.987C-0.75136 27.451 0.118639 24.201 2.65064 22.737C3.36864 22.323 3.81464 21.551 3.81464 20.723C3.81464 19.895 3.36864 19.121 2.65064 18.707C0.11664 17.235 -0.75136 13.977 0.70864 11.441L2.06464 9.21498C3.50664 6.70698 6.76664 5.82298 9.30864 7.28298C9.65464 7.48898 10.0306 7.59298 10.4126 7.59698C11.6586 7.59698 12.7006 6.56898 12.7206 5.30498C12.7126 3.91098 13.2626 2.57298 14.2646 1.56298C15.2706 0.554977 16.6066 0.000976562 18.0286 0.000976562H20.5346ZM20.5346 3.00098H18.0286C17.4086 3.00098 16.8286 3.24298 16.3906 3.67898C15.9546 4.11698 15.7166 4.69898 15.7206 5.31898C15.6786 8.24298 13.2886 10.597 10.3946 10.597C9.46664 10.587 8.57264 10.337 7.79664 9.87298C6.70664 9.25298 5.28264 9.63498 4.64464 10.745L3.29064 12.971C2.67064 14.047 3.05064 15.469 4.15464 16.111C5.79264 17.059 6.81464 18.827 6.81464 20.723C6.81464 22.619 5.79264 24.385 4.15064 25.335C3.05264 25.971 2.67264 27.385 3.30864 28.485L4.57064 30.661C4.88264 31.223 5.39264 31.629 5.98264 31.795C6.57064 31.959 7.21864 31.889 7.75864 31.589C8.55264 31.123 9.47664 30.881 10.4046 30.881C10.8626 30.881 11.3206 30.939 11.7686 31.059C13.1206 31.423 14.2946 32.327 14.9906 33.541C15.4426 34.303 15.6926 35.193 15.7006 36.101C15.7006 37.401 16.7446 38.443 18.0286 38.443H20.5346C21.8126 38.443 22.8566 37.407 22.8626 36.129C22.8546 34.717 23.4066 33.375 24.4166 32.365C25.4126 31.369 26.8046 30.771 28.1966 30.811C29.1086 30.833 29.9866 31.079 30.7606 31.519C31.8746 32.157 33.2966 31.777 33.9406 30.677L35.2686 28.463C35.5646 27.953 35.6506 27.313 35.4926 26.723C35.3366 26.133 34.9446 25.621 34.4166 25.319C33.1806 24.607 32.2986 23.459 31.9326 22.083C31.5706 20.733 31.7686 19.259 32.4746 18.045C32.9346 17.245 33.6086 16.571 34.4166 16.107C35.5006 15.473 35.8806 14.055 35.2506 12.951C35.2246 12.907 35.2006 12.861 35.1806 12.813L34.0086 10.781C33.3706 9.67098 31.9506 9.28898 30.8366 9.92298C29.6326 10.635 28.2006 10.839 26.8246 10.477C25.4506 10.121 24.2986 9.25098 23.5806 8.02298C23.1206 7.25498 22.8706 6.36098 22.8626 5.45098C22.8806 4.76698 22.6406 4.15298 22.2046 3.70298C21.7706 3.25498 21.1606 3.00098 20.5346 3.00098ZM19.2904 13.9492C23.0244 13.9492 26.0624 16.9892 26.0624 20.7232C26.0624 24.4572 23.0244 27.4932 19.2904 27.4932C15.5564 27.4932 12.5184 24.4572 12.5184 20.7232C12.5184 16.9892 15.5564 13.9492 19.2904 13.9492ZM19.2904 16.9492C17.2104 16.9492 15.5184 18.6432 15.5184 20.7232C15.5184 22.8032 17.2104 24.4932 19.2904 24.4932C21.3704 24.4932 23.0624 22.8032 23.0624 20.7232C23.0624 18.6432 21.3704 16.9492 19.2904 16.9492Z" fill="white"/>
</svg>
