<svg width="36" height="35" viewBox="0 0 36 35" fill="none" xmlns="http://www.w3.org/2000/svg">
<path d="M18.0111 34.7956C27.6196 34.7956 35.4089 27.0063 35.4089 17.3978C35.4089 7.78926 27.6196 0 18.0111 0C8.40254 0 0.613281 7.78926 0.613281 17.3978C0.613281 27.0063 8.40254 34.7956 18.0111 34.7956Z" fill="#E4405F"/>
<path d="M18.0119 8.69922C15.6503 8.69922 15.3547 8.70941 14.427 8.75019C13.4994 8.79436 12.8707 8.94048 12.3168 9.15455C11.746 9.37542 11.2601 9.67445 10.7742 10.157C10.2882 10.6395 9.99261 11.1254 9.77174 11.6997C9.55766 12.2535 9.41155 12.8856 9.36738 13.8098C9.3232 14.7375 9.31641 15.0331 9.31641 17.3947C9.31641 19.7563 9.3266 20.052 9.36738 20.9796C9.41155 21.9039 9.55766 22.5359 9.77174 23.0898C9.99261 23.6606 10.2916 24.1466 10.7742 24.6325C11.2567 25.115 11.7426 25.414 12.3168 25.6349C12.8707 25.849 13.5028 25.9951 14.427 26.0392C15.3547 26.0834 15.6503 26.0902 18.0119 26.0902C20.3735 26.0902 20.6691 26.08 21.5968 26.0392C22.5211 25.9951 23.1531 25.849 23.707 25.6349C24.2778 25.414 24.7637 25.115 25.2497 24.6325C25.7322 24.15 26.0312 23.664 26.2521 23.0898C26.4661 22.5359 26.6123 21.9039 26.6564 20.9796C26.7006 20.052 26.7074 19.7563 26.7074 17.3947C26.7074 15.0331 26.6972 14.7375 26.6564 13.8098C26.6123 12.8856 26.4661 12.2535 26.2521 11.6997C26.0312 11.1288 25.7322 10.6429 25.2497 10.157C24.7671 9.67445 24.2812 9.37542 23.707 9.15455C23.1531 8.94048 22.5211 8.79436 21.5968 8.75019C20.6691 8.70941 20.3735 8.69922 18.0119 8.69922ZM18.0119 10.2657C20.3327 10.2657 20.6114 10.2759 21.5288 10.3167C22.3783 10.3574 22.8371 10.4968 23.1429 10.6191C23.5507 10.7754 23.8395 10.9657 24.1453 11.2681C24.4477 11.5739 24.638 11.8628 24.7943 12.2705C24.9133 12.5763 25.056 13.0351 25.0934 13.8846C25.1341 14.802 25.1443 15.0773 25.1443 17.4015C25.1443 19.7257 25.1341 20.001 25.09 20.9185C25.0458 21.768 24.9031 22.2267 24.7841 22.5325C24.621 22.9403 24.4375 23.2291 24.1317 23.5349C23.8293 23.8373 23.5337 24.0276 23.1327 24.1839C22.8269 24.3029 22.3614 24.4456 21.5119 24.483C20.5876 24.5237 20.3158 24.5339 17.9881 24.5339C15.6605 24.5339 15.3886 24.5237 14.4644 24.4796C13.6149 24.4354 13.1494 24.2927 12.8435 24.1737C12.4324 24.0106 12.1469 23.8271 11.8445 23.5213C11.5387 23.2189 11.345 22.9233 11.1921 22.5223C11.0732 22.2165 10.9305 21.751 10.8863 20.9015C10.8523 19.9874 10.8421 19.7054 10.8421 17.3913C10.8421 15.0739 10.8523 14.7918 10.8863 13.8676C10.9305 13.0181 11.0698 12.5526 11.1921 12.2467C11.345 11.8322 11.5387 11.5501 11.8445 11.2443C12.1469 10.9419 12.4324 10.7448 12.8435 10.5919C13.1494 10.473 13.6047 10.3303 14.4542 10.2861C15.3785 10.2521 15.6503 10.2419 17.9779 10.2419L18.0119 10.2657ZM18.0119 12.9297C15.545 12.9297 13.5435 14.9312 13.5435 17.3981C13.5435 19.8651 15.545 21.8665 18.0119 21.8665C20.4789 21.8665 22.4803 19.8651 22.4803 17.3981C22.4803 14.9312 20.4789 12.9297 18.0119 12.9297ZM18.0119 20.2966C16.4114 20.2966 15.1134 18.9986 15.1134 17.3981C15.1134 15.7977 16.4114 14.4996 18.0119 14.4996C19.6124 14.4996 20.9104 15.7977 20.9104 17.3981C20.9104 18.9986 19.6124 20.2966 18.0119 20.2966ZM23.7002 12.7564C23.7002 13.3341 23.2312 13.7996 22.657 13.7996C22.0793 13.7996 21.6138 13.3307 21.6138 12.7564C21.6138 12.1822 22.0827 11.7133 22.657 11.7133C23.2312 11.7099 23.7002 12.1788 23.7002 12.7564Z" fill="white"/>
</svg>
