<svg width="35" height="35" viewBox="0 0 35 35" fill="none" xmlns="http://www.w3.org/2000/svg">
<path d="M17.4798 34.7956C27.0884 34.7956 34.8776 27.0063 34.8776 17.3978C34.8776 7.78926 27.0884 0 17.4798 0C7.87129 0 0.0820312 7.78926 0.0820312 17.3978C0.0820312 27.0063 7.87129 34.7956 17.4798 34.7956Z" fill="#BD081C"/>
<path d="M17.47 8.69922C12.672 8.69922 8.78125 12.5899 8.78125 17.3879C8.78125 21.0714 11.0715 24.2145 14.303 25.4786C14.2283 24.7922 14.1603 23.7354 14.3336 22.9844C14.4933 22.3048 15.353 18.6656 15.353 18.6656C15.353 18.6656 15.0913 18.1423 15.0913 17.3743C15.0913 16.168 15.7913 15.2642 16.6646 15.2642C17.4054 15.2642 17.7656 15.8214 17.7656 16.4875C17.7656 17.235 17.2933 18.3496 17.0452 19.3826C16.8379 20.249 17.4801 20.9524 18.333 20.9524C19.8757 20.9524 21.065 19.3248 21.065 16.9734C21.065 14.9006 19.5699 13.4428 17.436 13.4428C14.9656 13.4428 13.5147 15.3015 13.5147 17.2112C13.5147 17.9588 13.8001 18.7641 14.1603 19.1991C14.2317 19.2874 14.2418 19.3622 14.2215 19.4505C14.1569 19.7224 14.0074 20.3204 13.9802 20.4393C13.9428 20.6024 13.8545 20.6364 13.688 20.5583C12.604 20.0588 11.9244 18.4719 11.9244 17.1908C11.9244 14.452 13.9156 11.9341 17.667 11.9341C20.6811 11.9341 23.0257 14.0851 23.0257 16.953C23.0257 19.95 21.1364 22.3626 18.5063 22.3626C17.6263 22.3626 16.8005 21.9073 16.5083 21.3636L15.9646 23.4296C15.771 24.1873 15.2375 25.1354 14.8773 25.7096C15.6928 25.9611 16.5491 26.097 17.4496 26.097C22.2374 26.097 26.1383 22.2063 26.1383 17.4083C26.1383 12.6069 22.2408 8.71961 17.4496 8.71961L17.47 8.69922Z" fill="white"/>
</svg>
