<svg width="36" height="35" viewBox="0 0 36 35" fill="none" xmlns="http://www.w3.org/2000/svg">
<path d="M17.9915 34.7956C27.6001 34.7956 35.3893 27.0063 35.3893 17.3978C35.3893 7.78926 27.6001 0 17.9915 0C8.38301 0 0.59375 7.78926 0.59375 17.3978C0.59375 27.0063 8.38301 34.7956 17.9915 34.7956Z" fill="#0A66C2"/>
<path d="M24.1457 23.5553H21.5632V19.5117C21.5632 18.5466 21.5428 17.3064 20.2176 17.3064C18.872 17.3064 18.6647 18.3564 18.6647 19.4403V23.5553H16.0822V15.237H18.5627V16.3719H18.5967C18.9433 15.7195 19.786 15.0297 21.0433 15.0297C23.6597 15.0297 24.1423 16.7525 24.1423 18.9918L24.1457 23.5553ZM13.1701 14.0987C12.3376 14.0987 11.6716 13.4258 11.6716 12.6001C11.6716 11.7744 12.341 11.1016 13.1701 11.1016C13.9992 11.1016 14.6686 11.7744 14.6686 12.6001C14.6686 13.4258 13.9958 14.0987 13.1701 14.0987ZM14.4647 23.5553H11.8755V15.237H14.4647V23.5553ZM25.4369 8.69922H10.5808C9.87063 8.69922 9.29297 9.25989 9.29297 9.95648V24.8737C9.29297 25.5669 9.86723 26.131 10.5808 26.131H25.4335C26.1437 26.131 26.7247 25.5703 26.7247 24.8737V9.95648C26.7247 9.25989 26.1437 8.69922 25.4369 8.69922Z" fill="white"/>
</svg>
