<svg width="35" height="35" viewBox="0 0 35 35" fill="none" xmlns="http://www.w3.org/2000/svg">
<path d="M17.5228 34.7956C27.1313 34.7956 34.9206 27.0063 34.9206 17.3978C34.9206 7.78926 27.1313 0 17.5228 0C7.91426 0 0.125 7.78926 0.125 17.3978C0.125 27.0063 7.91426 34.7956 17.5228 34.7956Z" fill="#3C5A99"/>
<path d="M18.8767 26.0965V18.1724H21.5475L21.9485 15.07H18.8767V13.0958C18.8767 12.1987 19.1247 11.5905 20.4092 11.5905H22.0368V8.82448C21.7548 8.7871 20.783 8.70215 19.6514 8.70215C17.2898 8.70215 15.6724 10.1429 15.6724 12.79V15.0734H13.0117V18.1758H15.6724V26.0965H18.8767Z" fill="white"/>
</svg>
