<svg width="35" height="35" viewBox="0 0 35 35" fill="none" xmlns="http://www.w3.org/2000/svg">
<path d="M17.4994 34.7956C27.1079 34.7956 34.8972 27.0063 34.8972 17.3978C34.8972 7.78926 27.1079 0 17.4994 0C7.89082 0 0.101562 7.78926 0.101562 17.3978C0.101562 27.0063 7.89082 34.7956 17.4994 34.7956Z" fill="#1DA1F2"/>
<path d="M26.5389 12.0556C25.9001 12.3376 25.2171 12.5279 24.4967 12.6162C25.2307 12.1745 25.7947 11.4779 26.0598 10.6488C25.3734 11.0498 24.6088 11.342 23.8001 11.5051C23.1511 10.8119 22.2302 10.377 21.204 10.377C19.24 10.377 17.6463 11.9706 17.6463 13.9313C17.6463 14.2133 17.6803 14.4851 17.7381 14.7434C14.7818 14.6041 12.1585 13.1837 10.4052 11.0362C10.0959 11.5595 9.92265 12.1643 9.92265 12.8269C9.92265 14.0638 10.5513 15.1512 11.5061 15.79C10.9217 15.7696 10.3746 15.6099 9.89546 15.3448V15.389C9.89546 17.1152 11.1187 18.5526 12.7498 18.8788C12.4508 18.9603 12.1347 19.0011 11.8119 19.0011C11.5843 19.0011 11.3668 18.9807 11.1493 18.9399C11.6047 20.3535 12.9163 21.3831 14.4794 21.4103C13.2663 22.3651 11.7236 22.9326 10.0688 22.9326C9.78673 22.9326 9.50469 22.9156 9.22266 22.885C10.8061 23.8942 12.6716 24.4821 14.6867 24.4821C21.2278 24.4821 24.8059 19.0623 24.8059 14.3696C24.8059 14.2201 24.8059 14.0672 24.7957 13.9143C25.4889 13.4148 26.0972 12.7861 26.5729 12.0726L26.5389 12.0556Z" fill="white"/>
</svg>
